<svg xmlns="http://www.w3.org/2000/svg" width="185.323" height="142.729" viewBox="0 0 173.74 133.808"><defs><radialGradient r="255.59" gradientTransform="matrix(-.12273 0 0 .12273 -1807.363 -1063.95)" cx="-464.92" cy="873.19" gradientUnits="userSpaceOnUse" id="prefix__a"><stop offset=".5" stop-color="#ffd046"/><stop offset="1" stop-color="#f0a957"/></radialGradient></defs><path d="M55.805 113.333s14.363 7.74 36.391 15.406c13.305 4.639 36.936-3.185 49.238-6.443 12.321-3.27 33.61-10.033 27.703-15.94-5.907-5.906-22.893-18.502-22.893-18.502s16.173 26.705-90.442 25.48z" fill="#fff" stroke="#000" stroke-width="7.17732747" stroke-linejoin="round"/><path d="M154.12 93.912c0 11.263-33.698 20.397-75.27 20.397-41.57 0-75.26-9.132-75.26-20.397 8.669-6.285 7.416-11.578 7.416-11.578h136.049s-1.209 5.29 7.064 11.575z" fill="#fff" stroke="#000" stroke-width="7.17732747" stroke-linejoin="round"/><path d="M19.281 42.016c1.683-3.84 8.203-17.102 21.458-26.438 24.03-16.945 53.826-13.713 71.346-3.541 11.839 6.887 19.994 15.763 26.457 28.793 1.577 3.183 4.517 9.975 6.532 19.691 1.743 8.428 1.911 13.742 2.192 22.568 0 7.375-14.01 14.027-38.127 17.266-33.751 4.52-74.541.594-91.097-8.768-4.737-2.677-6.973-5.526-6.964-8.301.348-11.404.771-24.323 8.205-41.27z" fill="#fff"/><path d="M19.281 42.016c1.683-3.84 8.203-17.102 21.458-26.438 24.03-16.945 53.826-13.713 71.346-3.541 11.839 6.887 19.994 15.763 26.457 28.793 1.577 3.183 4.517 9.975 6.532 19.691 1.743 8.428 1.911 13.742 2.192 22.568 0 7.375-14.01 14.027-38.127 17.266-33.751 4.52-74.541.594-91.097-8.768-4.737-2.677-6.973-5.526-6.964-8.301.348-11.404.771-24.323 8.205-41.27z" fill="#74fc00" stroke="#000" stroke-width="7.17732747" stroke-linejoin="round"/><path d="M55.239 112.995s14.368 7.726 36.39 15.405c13.3 4.63 36.93-3.185 49.234-6.455 12.321-3.258 33.613-10.021 27.705-15.94-5.907-5.905-22.884-18.495-22.884-18.495s16.165 26.707-90.446 25.485z" fill="#ffbd34" stroke="#ffbd34" stroke-width="2.39244249" stroke-linejoin="round"/><path d="M153.552 93.573c0 11.264-33.687 20.39-75.265 20.39-41.567 0-75.265-9.123-75.265-20.39C11.697 87.29 10.434 82 10.434 82h136.058s-.81 6.174 7.457 12.458z" fill="#ffbd34" stroke="#ffbd34" stroke-width="2.39244249" stroke-linejoin="round"/><path d="M18.71 41.673c1.683-3.837 8.207-17.094 21.459-26.439 24.026-16.945 53.82-13.708 71.345-3.538 11.846 6.888 19.997 15.762 26.454 28.782 1.58 3.183 4.527 9.975 6.532 19.696 1.739 8.422 1.909 13.741 2.194 22.556 0 7.375-14.017 14.038-38.138 17.266-33.75 4.532-74.536.593-91.086-8.768-4.738-2.677-6.979-5.516-6.968-8.301.362-11.386.785-24.307 8.209-41.254z" fill="#ffd520"/><path d="M18.71 41.673c1.683-3.837 8.207-17.094 21.459-26.439 24.026-16.945 53.82-13.708 71.345-3.538 11.846 6.888 19.997 15.762 26.454 28.782 1.58 3.183 4.527 9.975 6.532 19.696 1.739 8.422 1.909 13.741 2.194 22.556 0 7.375-14.017 14.038-38.138 17.266-33.75 4.532-74.536.593-91.086-8.768-4.738-2.677-6.979-5.516-6.968-8.301.362-11.386.785-24.307 8.209-41.254z" fill="none" stroke="#000" stroke-width="2.39244249" stroke-linejoin="round"/><path d="M-1774.422-954.959c.445-1.015 2.171-4.522 5.677-6.995 6.357-4.483 14.24-3.627 18.877-.936 3.134 1.822 5.291 4.17 7 7.615.418.842 1.197 2.64 1.728 5.212.46 2.228.505 3.635.58 5.967 0 1.952-3.709 3.715-10.09 4.569-8.93 1.199-19.721.157-24.1-2.32-1.254-.709-1.847-1.46-1.844-2.197.096-3.012.208-6.43 2.172-10.915z" fill="url(#prefix__a)" stroke="#fac44b" stroke-linejoin="round" transform="matrix(3.77953 0 0 3.77953 6725.188 3650.966)"/><path d="M43.304 12.693C93.85-19.54 145.153 46.659 143.547 89.168l4.702 1.898C148.247 44.73 98.037-23.566 43.303 12.693" fill="#ccc"/><path fill="#ccc" d="M150.813 98.022l-2.566-6.958-4.702-1.897z"/><path d="M128.588 97.697c0-41.937-25.025-107.276-70.343-92.441 48.598-16.45 89.992 43.722 89.992 85.798l2.566 6.96-19.659 6.63-2.556-6.946z" fill="#ffd467"/><path d="M128.593 97.697l2.563 6.96-11.526-8.08c1.61-42.512-25.777-116.111-76.327-83.892C98.037-23.565 128.59 51.357 128.59 97.7z" fill="#ccc"/><path d="M128.593 97.697l2.563 6.96-11.526-8.08c1.61-42.512-25.777-116.111-76.327-83.892C98.037-23.565 128.59 51.357 128.59 97.7z" fill="#ffbd34"/><path fill="#ffbd34" stroke="#ffbd34" stroke-width="2.39300215" stroke-linecap="round" stroke-linejoin="round" d="M61.065 70.849l-5.014 5.028-.812 20.363 6.591-11.907z"/><path d="M29.69 68.45l-2.63 2.631-.807 20.368 4.188-11.912z"/><path d="M55.239 96.24s-27.592-3.421-28.976-4.804c-1.388-1.372.803-20.364.803-20.364l28.988 4.793-.815 20.375z" fill="#ffd467" stroke="#ffd467" stroke-width="2.39244249" stroke-linecap="round" stroke-linejoin="round"/><path fill="#f4b253" stroke="#f4b253" stroke-width="2.39300215" stroke-linecap="round" stroke-linejoin="round" d="M27.06 71.081l5.023-5.024 28.982 4.792-5.014 5.028z"/></svg>